<svg width="53" height="48" viewBox="0 0 53 48" fill="none" xmlns="http://www.w3.org/2000/svg">
<g clip-path="url(#clip0_871_9536)">
<mask id="mask0_871_9536" style="mask-type:luminance" maskUnits="userSpaceOnUse" x="-7" y="-11" width="270" height="87">
<path d="M262.926 -10.3213H-6.88721V75.3092H262.926V-10.3213Z" fill="white"/>
</mask>
<g mask="url(#mask0_871_9536)">
<path d="M4.79062 0.671143C4.79062 0.671143 2.65179 8.21106 10.0674 12.1785C10.0674 12.1785 13.2054 12.7076 15.9148 12.4431C18.6242 12.3114 30.4622 10.1948 33.7421 12.1785C33.7421 12.1785 38.7337 13.8976 39.1609 19.5854C39.1609 19.5854 40.0167 24.215 37.022 28.7115C34.1693 33.0765 29.8917 35.5894 29.8917 35.5894C29.8917 35.5894 29.6064 35.9856 30.4622 38.6314C31.46 41.2772 34.7399 44.4509 38.3065 45.3776C41.7297 46.3029 45.1516 46.5675 47.719 45.7738C50.1431 44.98 50.2864 44.8484 50.2864 44.8484C50.2864 44.8484 44.4391 42.8647 41.4445 34.7956C41.4445 34.7956 40.8739 33.6056 41.0158 33.0765C41.1592 32.4144 43.5833 30.6953 45.4368 28.8432C47.4337 26.9911 52.4253 19.9804 50.2864 12.9709C48.2896 5.96016 40.3034 3.84481 36.4529 3.05107C32.4591 2.25733 23.9024 3.05107 20.3372 2.91943C16.9139 2.78649 12.2077 3.05107 8.64249 2.12569C5.21923 1.06736 4.79062 0.671143 4.79062 0.671143Z" fill="#24255B"/>
</g>
<mask id="mask1_871_9536" style="mask-type:luminance" maskUnits="userSpaceOnUse" x="-7" y="-11" width="270" height="87">
<path d="M262.926 -10.3213H-6.88721V75.3092H262.926V-10.3213Z" fill="white"/>
</mask>
<g mask="url(#mask1_871_9536)">
<path d="M19.7652 44.8499C19.7652 44.8499 19.0527 45.9082 18.7675 46.1728C18.4822 46.3044 3.79282 46.1728 3.79282 46.1728L12.9201 34.93C12.9201 34.93 7.50135 34.4009 6.36026 33.4755C5.21918 32.6817 4.0781 30.9626 6.78887 27.656C9.35631 24.3494 13.9192 21.5719 13.9192 21.5719C13.9192 21.5719 2.79508 19.1907 1.79733 10.7254C1.79733 10.7254 0.799586 5.43507 4.79198 0.672607C4.79198 0.672607 3.65089 7.55042 8.5005 10.857C8.5005 10.99 8.5005 10.99 8.64384 10.99C9.07104 11.3862 12.0671 14.032 17.3439 15.0903C23.1913 16.1487 30.3216 16.1487 30.3216 16.1487C30.3216 16.1487 27.327 17.7361 23.9037 20.5136C20.4805 23.291 17.9144 25.8039 19.1975 27.3914C20.6238 28.9789 26.8984 27.2585 28.61 26.7293C30.1783 26.0685 31.8899 25.5393 31.8899 25.5393L19.7652 44.8499Z" fill="#EB4925"/>
</g>
</g>
<defs>
<clipPath id="clip0_871_9536">
<rect width="53" height="48" fill="white"/>
</clipPath>
</defs>
</svg>
